<svg id="visual" viewBox="0 0 1920 1080" width="1920" height="1080" xmlns="http://www.w3.org/2000/svg" xmlns:xlink="http://www.w3.org/1999/xlink" version="1.1"><path d="M0 325L29.2 301.7C58.3 278.3 116.7 231.7 174.8 192C233 152.3 291 119.7 349.2 130.3C407.3 141 465.7 195 523.8 223.8C582 252.7 640 256.3 698.2 247.3C756.3 238.3 814.7 216.7 872.8 196.8C931 177 989 159 1047.2 169.8C1105.3 180.7 1163.7 220.3 1221.8 211.3C1280 202.3 1338 144.7 1396.2 148.3C1454.3 152 1512.7 217 1570.8 231.5C1629 246 1687 210 1745.2 210C1803.3 210 1861.7 246 1890.8 264L1920 282L1920 0L1890.8 0C1861.7 0 1803.3 0 1745.2 0C1687 0 1629 0 1570.8 0C1512.7 0 1454.3 0 1396.2 0C1338 0 1280 0 1221.8 0C1163.7 0 1105.3 0 1047.2 0C989 0 931 0 872.8 0C814.7 0 756.3 0 698.2 0C640 0 582 0 523.8 0C465.7 0 407.3 0 349.2 0C291 0 233 0 174.8 0C116.7 0 58.3 0 29.2 0L0 0Z" fill="#659dff"></path><path d="M0 390L29.2 370.2C58.3 350.3 116.7 310.7 174.8 287.2C233 263.7 291 256.3 349.2 276.2C407.3 296 465.7 343 523.8 373.7C582 404.3 640 418.7 698.2 409.7C756.3 400.7 814.7 368.3 872.8 330.5C931 292.7 989 249.3 1047.2 256.5C1105.3 263.7 1163.7 321.3 1221.8 325C1280 328.7 1338 278.3 1396.2 278.3C1454.3 278.3 1512.7 328.7 1570.8 337.7C1629 346.7 1687 314.3 1745.2 321.5C1803.3 328.7 1861.7 375.3 1890.8 398.7L1920 422L1920 280L1890.8 262C1861.7 244 1803.3 208 1745.2 208C1687 208 1629 244 1570.8 229.5C1512.7 215 1454.3 150 1396.2 146.3C1338 142.7 1280 200.3 1221.8 209.3C1163.7 218.3 1105.3 178.7 1047.2 167.8C989 157 931 175 872.8 194.8C814.7 214.7 756.3 236.3 698.2 245.3C640 254.3 582 250.7 523.8 221.8C465.7 193 407.3 139 349.2 128.3C291 117.7 233 150.3 174.8 190C116.7 229.7 58.3 276.3 29.2 299.7L0 323Z" fill="#4186ff"></path><path d="M0 833L29.2 779C58.3 725 116.7 617 174.8 557.5C233 498 291 487 349.2 528.3C407.3 569.7 465.7 663.3 523.8 721C582 778.7 640 800.3 698.2 798.5C756.3 796.7 814.7 771.3 872.8 724.5C931 677.7 989 609.3 1047.2 578.8C1105.3 548.3 1163.7 555.7 1221.8 546.7C1280 537.7 1338 512.3 1396.2 512.3C1454.3 512.3 1512.7 537.7 1570.8 553.8C1629 570 1687 577 1745.2 620.2C1803.3 663.3 1861.7 742.7 1890.8 782.3L1920 822L1920 420L1890.8 396.7C1861.7 373.3 1803.3 326.7 1745.2 319.5C1687 312.3 1629 344.7 1570.8 335.7C1512.7 326.7 1454.3 276.3 1396.2 276.3C1338 276.3 1280 326.7 1221.8 323C1163.7 319.3 1105.3 261.7 1047.2 254.5C989 247.3 931 290.7 872.8 328.5C814.7 366.3 756.3 398.7 698.2 407.7C640 416.7 582 402.3 523.8 371.7C465.7 341 407.3 294 349.2 274.2C291 254.3 233 261.7 174.8 285.2C116.7 308.7 58.3 348.3 29.2 368.2L0 388Z" fill="#0d6efd"></path><path d="M0 930L29.2 888.5C58.3 847 116.7 764 174.8 724.3C233 684.7 291 688.3 349.2 731.7C407.3 775 465.7 858 523.8 901.2C582 944.3 640 947.7 698.2 935C756.3 922.3 814.7 893.7 872.8 845.2C931 796.7 989 728.3 1047.2 714C1105.3 699.7 1163.7 739.3 1221.8 739.3C1280 739.3 1338 699.7 1396.2 681.7C1454.3 663.7 1512.7 667.3 1570.8 687.2C1629 707 1687 743 1745.2 789.7C1803.3 836.3 1861.7 893.7 1890.8 922.3L1920 951L1920 820L1890.8 780.3C1861.7 740.7 1803.3 661.3 1745.2 618.2C1687 575 1629 568 1570.8 551.8C1512.7 535.7 1454.3 510.3 1396.2 510.3C1338 510.3 1280 535.7 1221.8 544.7C1163.7 553.7 1105.3 546.3 1047.2 576.8C989 607.3 931 675.7 872.8 722.5C814.7 769.3 756.3 794.7 698.2 796.5C640 798.3 582 776.7 523.8 719C465.7 661.3 407.3 567.7 349.2 526.3C291 485 233 496 174.8 555.5C116.7 615 58.3 723 29.2 777L0 831Z" fill="#045fdc"></path><path d="M0 1081L29.2 1081C58.3 1081 116.7 1081 174.8 1081C233 1081 291 1081 349.2 1081C407.3 1081 465.7 1081 523.8 1081C582 1081 640 1081 698.2 1081C756.3 1081 814.7 1081 872.8 1081C931 1081 989 1081 1047.2 1081C1105.3 1081 1163.7 1081 1221.8 1081C1280 1081 1338 1081 1396.2 1081C1454.3 1081 1512.7 1081 1570.8 1081C1629 1081 1687 1081 1745.2 1081C1803.3 1081 1861.7 1081 1890.8 1081L1920 1081L1920 949L1890.8 920.3C1861.7 891.7 1803.3 834.3 1745.2 787.7C1687 741 1629 705 1570.8 685.2C1512.7 665.3 1454.3 661.7 1396.2 679.7C1338 697.7 1280 737.3 1221.8 737.3C1163.7 737.3 1105.3 697.7 1047.2 712C989 726.3 931 794.7 872.8 843.2C814.7 891.7 756.3 920.3 698.2 933C640 945.7 582 942.3 523.8 899.2C465.7 856 407.3 773 349.2 729.7C291 686.3 233 682.7 174.8 722.3C116.7 762 58.3 845 29.2 886.5L0 928Z" fill="#0051bb"></path></svg>