<?xml version="1.0" standalone="no"?><svg xmlns="http://www.w3.org/2000/svg" viewBox="0 0 1440 320"><path fill="#0d6efd" fill-opacity="1" d="M0,320L0,128L37.9,128L37.9,64L75.8,64L75.8,160L113.7,160L113.7,224L151.6,224L151.6,160L189.5,160L189.5,224L227.4,224L227.4,160L265.3,160L265.3,160L303.2,160L303.2,320L341.1,320L341.1,288L378.9,288L378.9,320L416.8,320L416.8,224L454.7,224L454.7,64L492.6,64L492.6,128L530.5,128L530.5,224L568.4,224L568.4,192L606.3,192L606.3,64L644.2,64L644.2,128L682.1,128L682.1,160L720,160L720,32L757.9,32L757.9,256L795.8,256L795.8,160L833.7,160L833.7,96L871.6,96L871.6,224L909.5,224L909.5,192L947.4,192L947.4,96L985.3,96L985.3,320L1023.2,320L1023.2,256L1061.1,256L1061.1,32L1098.9,32L1098.9,160L1136.8,160L1136.8,96L1174.7,96L1174.7,224L1212.6,224L1212.6,320L1250.5,320L1250.5,32L1288.4,32L1288.4,64L1326.3,64L1326.3,128L1364.2,128L1364.2,288L1402.1,288L1402.1,32L1440,32L1440,320L1402.1,320L1402.1,320L1364.2,320L1364.2,320L1326.3,320L1326.3,320L1288.4,320L1288.4,320L1250.5,320L1250.5,320L1212.6,320L1212.6,320L1174.7,320L1174.7,320L1136.8,320L1136.8,320L1098.9,320L1098.9,320L1061.1,320L1061.1,320L1023.2,320L1023.2,320L985.3,320L985.3,320L947.4,320L947.4,320L909.5,320L909.5,320L871.6,320L871.6,320L833.7,320L833.7,320L795.8,320L795.8,320L757.9,320L757.9,320L720,320L720,320L682.1,320L682.1,320L644.2,320L644.2,320L606.3,320L606.3,320L568.4,320L568.4,320L530.5,320L530.5,320L492.6,320L492.6,320L454.7,320L454.7,320L416.8,320L416.8,320L378.9,320L378.9,320L341.1,320L341.1,320L303.2,320L303.2,320L265.3,320L265.3,320L227.4,320L227.4,320L189.5,320L189.5,320L151.6,320L151.6,320L113.7,320L113.7,320L75.8,320L75.8,320L37.9,320L37.9,320L0,320L0,320Z"></path></svg>