<?xml version="1.0" standalone="no"?><svg xmlns="http://www.w3.org/2000/svg" viewBox="0 0 1440 320"><path fill="#0dcaf0" fill-opacity="1" d="M0,160L21.8,170.7C43.6,181,87,203,131,224C174.5,245,218,267,262,277.3C305.5,288,349,288,393,245.3C436.4,203,480,117,524,117.3C567.3,117,611,203,655,213.3C698.2,224,742,160,785,117.3C829.1,75,873,53,916,85.3C960,117,1004,203,1047,240C1090.9,277,1135,267,1178,234.7C1221.8,203,1265,149,1309,106.7C1352.7,64,1396,32,1418,16L1440,0L1440,320L1418.2,320C1396.4,320,1353,320,1309,320C1265.5,320,1222,320,1178,320C1134.5,320,1091,320,1047,320C1003.6,320,960,320,916,320C872.7,320,829,320,785,320C741.8,320,698,320,655,320C610.9,320,567,320,524,320C480,320,436,320,393,320C349.1,320,305,320,262,320C218.2,320,175,320,131,320C87.3,320,44,320,22,320L0,320Z"></path></svg>